<?xml version="1.0" encoding="utf-8"?>
<svg x="0pt" y="0pt" width="800pt" height="800pt" viewBox="0 0 800 800" xmlns="http://www.w3.org/2000/svg" xmlns:xlink="http://www.w3.org/1999/xlink">
  <g id="Layer 1">
    <path id="Path" style="fill:#296b52;fill-opacity:1;fill-rule:evenodd;opacity:1;stroke:none;" d="M0,0 C0,0,800,0,800,0 C800,0,800,800,800,800 C800,800,0,800,0,800 C0,800,0,0,0,0 z"/>
    <path id="Path" style="fill:#296b52;fill-opacity:1;fill-rule:evenodd;opacity:1;stroke:none;" d="M400,1.76046e-05 C620.914,1.76046e-05,800,179.086,800,400 C800,620.914,620.914,800,400,800 C179.086,800,4.43952e-05,620.914,4.43952e-05,400 C4.43952e-05,179.086,179.086,1.76046e-05,400,1.76046e-05 z"/>
    <g id="Group Copy">
      <path id="Path" style="fill:#ffc982;fill-opacity:1;fill-rule:nonzero;opacity:1;stroke:none;" d="M336.195,531.587 C336.195,531.587,260.119,579.825,260.119,579.825 C260.119,579.825,285.683,531.587,285.683,531.587 C285.683,531.587,336.195,531.587,336.195,531.587 z"/>
      <path id="Path" style="fill:#ffc982;fill-opacity:1;fill-rule:evenodd;opacity:1;stroke:none;" d="M480.528,227.188 C480.528,227.188,215.864,227.188,215.864,227.188 C215.864,227.188,285.138,532.43,285.138,532.43 C285.138,532.43,420.53,532.43,420.53,532.43 C420.53,532.43,480.528,227.188,480.528,227.188 z"/>
      <path id="Path 6" style="fill:#f99f29;fill-opacity:1;fill-rule:evenodd;opacity:1;stroke:none;" d="M450.483,317.674 C450.483,317.674,409.594,516.411,409.594,516.411 C409.594,516.411,300.255,516.411,300.255,516.411 C300.255,516.411,256.065,317.674,256.065,317.674 C348.196,354.841,450.483,317.674,450.483,317.674 z"/>
      <path id="Cloud 2" style="fill:#ffffff;fill-opacity:1;fill-rule:evenodd;opacity:1;stroke:none;" d="M471.07,160.515 C507.784,162.244,536.741,182.081,536.741,206.297 C536.741,231.649,505.005,252.201,465.856,252.201 C451.028,252.201,437.264,249.253,425.884,244.212 C410.621,258.851,384.765,268.476,355.437,268.476 C324.453,268.476,297.345,257.734,282.508,241.687 C274.116,244.475,264.604,246.048,254.524,246.048 C220.623,246.048,193.141,228.251,193.141,206.297 C193.141,190.376,207.596,176.64,228.471,170.294 C228.407,169.568,228.375,168.836,228.375,168.099 C228.375,147.003,254.783,129.902,287.36,129.902 C298.591,129.902,309.09,131.934,318.025,135.463 C332.9,120.671,358.663,110.891,387.953,110.891 C431.731,110.891,467.63,132.738,471.07,160.515 z"/>
      <path id="Cloud 2 Copy" style="fill:#ffffff;fill-opacity:1;fill-rule:evenodd;opacity:1;stroke:none;" d="M218.294,167.483 C223.89,152.065,239.785,142.764,254.836,146.512 C270.592,150.437,279.457,167.177,274.636,183.902 C272.809,190.237,269.282,195.662,264.747,199.743 C271.965,208.53,274.763,221.067,271.151,233.597 C267.335,246.834,257.32,256.753,245.519,260.608 C246.219,264.625,246.025,268.932,244.784,273.239 C240.608,287.722,226.163,296.709,212.518,293.31 C202.623,290.846,195.866,282.544,194.493,272.643 C194.034,272.558,193.575,272.459,193.117,272.344 C180.006,269.079,172.63,255.149,176.642,241.231 C178.025,236.433,180.581,232.262,183.875,228.991 C176.513,220.346,173.608,207.826,177.216,195.312 C182.607,176.608,200.607,164.653,218.294,167.483 z"/>
      <path id="Path" style="fill:#db9b19;fill-opacity:1;fill-rule:evenodd;opacity:1;stroke:none;" d="M352.308,277.415 C292.316,277.415,251.92,288.787,251.92,302.814 C251.92,316.841,292.316,328.213,352.308,328.213 C412.3,328.213,452.709,316.841,452.709,302.814 C452.709,288.787,412.3,277.415,352.308,277.415 z"/>
      <path id="Path" style="fill:#ffffff;fill-opacity:1;fill-rule:evenodd;opacity:1;stroke:none;" d="M292.533,354.841 C283.374,354.841,275.949,361.254,275.949,369.166 C275.949,377.077,283.374,383.491,292.533,383.491 C301.691,383.491,309.116,377.077,309.116,369.166 C309.116,361.254,301.691,354.841,292.533,354.841 z"/>
      <path id="Path" style="fill:#ffffff;fill-opacity:1;fill-rule:evenodd;opacity:1;stroke:none;" d="M315.722,393.81 C311.39,393.81,307.878,397.075,307.878,401.102 C307.878,405.128,311.39,408.393,315.722,408.393 C320.054,408.393,323.566,405.128,323.566,401.102 C323.566,397.075,320.054,393.81,315.722,393.81 z"/>
      <path id="Path" style="fill:#ffffff;fill-opacity:1;fill-rule:evenodd;opacity:1;stroke:none;" d="M332.078,354.841 C327.822,354.841,324.372,358.048,324.372,362.003 C324.372,365.959,327.822,369.166,332.078,369.166 C336.333,369.166,339.783,365.959,339.783,362.003 C339.783,358.048,336.333,354.841,332.078,354.841 z"/>
    </g>
    <g id="Group">
      <path id="Path" style="fill:#ffc982;fill-opacity:1;fill-rule:evenodd;opacity:1;stroke:none;" d="M384.941,429.589 C384.941,429.589,598.648,429.589,598.648,429.589 C598.648,429.589,542.712,694.754,542.712,694.754 C542.712,694.754,433.387,694.754,433.387,694.754 C433.387,694.754,384.941,429.589,384.941,429.589 z"/>
      <path id="Path 6" style="fill:#f99f29;fill-opacity:1;fill-rule:evenodd;opacity:1;stroke:none;" d="M409.202,508.194 C409.202,508.194,442.218,680.838,442.218,680.838 C442.218,680.838,530.505,680.838,530.505,680.838 C530.505,680.838,566.187,508.194,566.187,508.194 C491.795,540.481,409.202,508.194,409.202,508.194 z"/>
      <path id="Cloud 2" style="fill:#ffffff;fill-opacity:1;fill-rule:evenodd;opacity:1;stroke:none;" d="M401.223,383.054 C371.578,384.556,348.196,401.788,348.196,422.825 C348.196,444.849,373.822,462.702,405.433,462.702 C417.406,462.702,428.521,460.141,437.709,455.762 C450.033,468.479,470.912,476.84,494.593,476.84 C519.611,476.84,541.5,467.508,553.481,453.568 C560.256,455.99,567.937,457.357,576.076,457.357 C603.45,457.357,625.641,441.897,625.641,422.825 C625.641,408.994,613.969,397.062,597.113,391.549 C597.165,390.918,597.191,390.282,597.191,389.642 C597.191,371.316,575.867,356.46,549.563,356.46 C540.494,356.46,532.016,358.226,524.801,361.291 C512.791,348.441,491.988,339.945,468.337,339.945 C432.987,339.945,404.001,358.924,401.223,383.054 z"/>
      <path id="Cloud 2 Copy" style="fill:#ffffff;fill-opacity:1;fill-rule:evenodd;opacity:1;stroke:none;" d="M596.686,377.722 C592.167,364.328,579.333,356.249,567.18,359.505 C554.457,362.914,547.299,377.456,551.192,391.986 C552.667,397.489,555.515,402.201,559.177,405.747 C553.348,413.38,551.089,424.271,554.006,435.156 C557.087,446.655,565.174,455.271,574.703,458.62 C574.138,462.11,574.294,465.852,575.297,469.593 C578.668,482.175,590.332,489.981,601.35,487.029 C609.34,484.888,614.795,477.676,615.904,469.076 C616.275,469.001,616.646,468.915,617.015,468.816 C627.602,465.979,633.558,453.878,630.319,441.788 C629.202,437.619,627.138,433.996,624.478,431.154 C630.422,423.645,632.768,412.768,629.855,401.897 C625.502,385.649,610.968,375.263,596.686,377.722 z"/>
      <path id="Path" style="fill:#ffc982;fill-opacity:1;fill-rule:nonzero;opacity:1;stroke:none;" d="M517.379,694.754 C517.379,694.754,556.103,731.156,556.103,731.156 C556.103,731.156,543.09,694.754,543.09,694.754 C543.09,694.754,517.379,694.754,517.379,694.754 z"/>
      <path id="Path" style="fill:#db9b19;fill-opacity:1;fill-rule:evenodd;opacity:1;stroke:none;" d="M488.474,473.221 C536.916,473.221,569.534,483.099,569.534,495.285 C569.534,507.47,536.916,517.349,488.474,517.349 C440.033,517.349,407.404,507.47,407.404,495.285 C407.404,483.099,440.033,473.221,488.474,473.221 z"/>
      <path id="Path" style="fill:#ffffff;fill-opacity:1;fill-rule:evenodd;opacity:1;stroke:none;" d="M536.741,540.481 C544.136,540.481,550.131,546.052,550.131,552.925 C550.131,559.798,544.136,565.369,536.741,565.369 C529.345,565.369,523.35,559.798,523.35,552.925 C523.35,546.052,529.345,540.481,536.741,540.481 z"/>
      <path id="Path" style="fill:#ffffff;fill-opacity:1;fill-rule:evenodd;opacity:1;stroke:none;" d="M518.016,574.334 C521.514,574.334,524.35,577.17,524.35,580.668 C524.35,584.166,521.514,587.002,518.016,587.002 C514.518,587.002,511.682,584.166,511.682,580.668 C511.682,577.17,514.518,574.334,518.016,574.334 z"/>
      <path id="Path" style="fill:#ffffff;fill-opacity:1;fill-rule:evenodd;opacity:1;stroke:none;" d="M504.81,540.481 C508.246,540.481,511.032,543.267,511.032,546.703 C511.032,550.139,508.246,552.925,504.81,552.925 C501.373,552.925,498.588,550.139,498.588,546.703 C498.588,543.267,501.373,540.481,504.81,540.481 z"/>
    </g>
  </g>
</svg>
